<?xml version="1.0" encoding="UTF-8"?>
<svg xmlns="http://www.w3.org/2000/svg" version="1.1" width="72px" height="72px" style="shape-rendering:geometricPrecision; text-rendering:geometricPrecision; image-rendering:optimizeQuality; fill-rule:evenodd; clip-rule:evenodd" xmlns:xlink="http://www.w3.org/1999/xlink">
<g id="mistral-ai-icon-seeklogo"><path style="opacity:0.97" fill="#fefffe" d="M -0.5,-0.5 C 6.16667,-0.5 12.8333,-0.5 19.5,-0.5C 19.5,4.16667 19.5,8.83333 19.5,13.5C 23.8333,13.5 28.1667,13.5 32.5,13.5C 32.5,18.1667 32.5,22.8333 32.5,27.5C 34.5,27.5 36.5,27.5 38.5,27.5C 38.5,22.8333 38.5,18.1667 38.5,13.5C 42.8333,13.5 47.1667,13.5 51.5,13.5C 51.5,8.83333 51.5,4.16667 51.5,-0.5C 58.1667,-0.5 64.8333,-0.5 71.5,-0.5C 71.5,23.5 71.5,47.5 71.5,71.5C 64.8333,71.5 58.1667,71.5 51.5,71.5C 51.5,62.1667 51.5,52.8333 51.5,43.5C 49.5,43.5 47.5,43.5 45.5,43.5C 45.5,48.1667 45.5,52.8333 45.5,57.5C 38.8333,57.5 32.1667,57.5 25.5,57.5C 25.5,52.8333 25.5,48.1667 25.5,43.5C 23.5,43.5 21.5,43.5 19.5,43.5C 19.5,52.8333 19.5,62.1667 19.5,71.5C 12.8333,71.5 6.16667,71.5 -0.5,71.5C -0.5,47.5 -0.5,23.5 -0.5,-0.5 Z"/></g>
</svg>
